<svg id="Шар_1" data-name="Шар 1" xmlns="http://www.w3.org/2000/svg" viewBox="0 0 654.94 339.19"><defs><style>.cls-1{fill:#1d1d1b;}</style></defs><title>Лого</title><path class="cls-1" d="M274.49,8.43s-16,30.08-14.63,28.31c-2.14,16.3-7.36,35.54-10.93,54.88-2.87.22-21.58,1.3-21.58,1.3l-3.85,8.82s14.71-1.11,24-1.71a201.61,201.61,0,0,0-2.81,23.48c-1.1,20.74,3,36.1,20.1,37,4.23,0.23,6.69-.77,6.82-3.17,0-.42-0.26-0.44-0.26-0.44a3.46,3.46,0,0,1-2,.88c-8.18-.44-9.8-20.62-8.5-44.88,0.23-4.24.47-8.75,0.86-13.4l0.09-1.69c5.25-.29,10.38-1,14.48-0.79,5.08,0.27,8.38,2,8.06,8.07-0.25,4.66-1.26,10.4-2,15.88-1.19,9-2,16.73-2.74,19.52a4.35,4.35,0,0,0-.21,1.26c-0.08,1.55,2.08.82,2.57,2.26,0.24,0.86,2.31,1.82,3.86,1.9,1.13,0.06,2.14-.31,2.19-1.3,3.6-9.15,8-28.3,15.18-35.28-0.25,10-.22,36.07,8.95,36.56,11.29,0.6,18.56-27,23.86-46.84l0.9-3.49c0,3.11-.19,6.22-0.36,9.32-0.77,14.53-2.71,29.71-4.94,39.64,0,0.42,3.61,1.32,6.57,1.48,1.13,0.06,2-.32,2.19-1.3,3.6-9.15,7.87-25.61,15-32.59-0.38,7.06-.82,31.23,11.46,31.88,5.64,0.3,9.91-8.11,10.22-13.89a0.37,0.37,0,0,0-.4-0.44,1.49,1.49,0,0,0-.57.11c-2.59,6.09-4.83,8.38-6.53,8.29-3-.16-4.4-7.59-4-15.07,0.45-8.47,2.53-20.95,6.48-28.66a1.28,1.28,0,0,0,.18-0.7c0.09-1.69-4.68-5.2-6.22-5.28a1.88,1.88,0,0,0-1.15.36c-8.59,7.32-14.7,23.55-19.74,33.19,0.29-5.5.74-11.14,1.33-22.29,0.31-5.78.51-12.14-.62-12.2s-4.43.76-7.13,1c-1.43.2-1.83-.1-2.35,1.57-5.1,13.31-13.39,49.52-21.29,49.1-2.11-.11-2.28-5.07-1.85-13.11,0.59-11,1.68-23.54,6.65-34.45a1.28,1.28,0,0,0,.18-0.7c0.09-1.69-4.68-5.2-6.23-5.28a1.87,1.87,0,0,0-1.15.36c-8.6,7.32-14.7,23.55-19.74,33.19,0.39-4.65,1.76-11.79,2.11-18.28,0.47-8.89-3.19-11.77-10.53-12.17-4.52-.24-10.36.44-17.76,1.32l-4.27.48c2.89-27.72,7.72-57.18,10.47-73.1Z"/><path class="cls-1" d="M457.89,127.65c0-.42-0.11-0.57-0.39-0.59-1-.05-3.81,2.48-5.15,3.69-9.06,8.15-15.74,11.19-20.81,10.92-12.42-.66-14.42-21.57-13.45-39.77,0.06-1.13-.77-1.46-2-1.52a11.55,11.55,0,0,0-3,.27c-0.64-6.54-4.06-11.39-11.4-11.78-13.4-.71-23.3,20.4-24.24,38-0.65,12.13,3,22.66,12.77,23.18,8.18,0.44,15.7-15.86,19.84-29.79,1.6,23,11.84,35.3,23,35.89,8.61,0.46,17.59-6.14,23.29-20.13l-1-2.74C457,130.16,457.84,128.5,457.89,127.65ZM389,143.09c-2.82-.15-4-4.32-3.71-10.1,0.59-11.15,7.59-33.56,16.34-33.09,2.12,0.11,4.3,1.64,6.53,4.88C406.3,115.85,400.57,143.7,389,143.09Z"/><path class="cls-1" d="M467.59,271.14c-3.16,0-3.16,1.32-3.16,1.58a60,60,0,0,1,3.16,18.17c0,17.37-9,26.06-18.43,26.06-10.27,0-21.33-10.53-21.33-30.54,0-24.74,15.27-56.07,29.49-57.13,1.32,0.53,1.84,2.11,1.84,4.21,0,6.05-4.74,16.06-6.84,16.32a0.7,0.7,0,0,0-.79.79c0,1.32,2.11,3.42,7.64,3.42,9,0,15.8-6.32,15.8-14.75a22.94,22.94,0,0,0-.53-4.21c-1.32-17.9-9.22-26.06-19.74-26.06-25.27,0-44.76,38.7-44.76,71.87a62,62,0,0,0,2,15.92,28.31,28.31,0,0,0-2.52,3.56c-5.27,7.9-9.48,11.32-12.9,11.32-6.59,0-9.74-12.9-9.74-29.75,0-23.43,4.48-52.92,6.32-58.7a11.84,11.84,0,0,0,.52-2.64c0-2.37-6.58-5.79-10-5.79-2.37,0-4.21,1.84-5.79,5-4.48,9.21-9.22,29.75-10.53,50-7.11,20-21.06,45-28.43,45-3.16,0-5-4.21-5-14.48,0-47.91,11.85-78.19,11.85-81.08,0,0,0-2.11-3.16-2.11A67.77,67.77,0,0,1,326.48,219c-2.11,0-3.16,3.42-3.16,3.42-3.22,10.65-7.83,36-8.37,59.32-2.87,2.12-2.47,3.17-3.22,4.92-5.79,15.27-12.11,21.85-17.38,21.85-6.05,0-10.53-8.69-10.53-22.64,0-13.17,7.63-39.75,15-54.5a8.59,8.59,0,0,0,.79-3.42c0-3.69-5.27-10.53-8.69-10.53-2.1,0-16.06,14.74-25.27,20.8-2.63,1.58-4.47,2.63-5.79,2.63-1.84,0-2.37-1.84-2.37-6.32,0-5,1.32-11.58,1.32-17.11,0-6.58-1.84-12.11-9.74-12.11-8.16,0-12.37,9.74-12.37,20.53,0,9,5.21,21,8.68,24.22a21.84,21.84,0,0,0,8.42,4.47s2.64,0.26,4,.26c5.53,0,11.32-1.05,15.53-3.16-2.37,8.69-6.58,27.38-6.58,44.23s4.21,31.85,18.69,31.85c15.83,0,25.4-17.83,29.71-33,1,19.65,6.05,35.4,18.74,35.4,14.21,0,25.54-26.06,33.17-46.33,0.26,22.38,6.05,41.59,22.64,41.59,13.68,0,23.69-20.27,23.69-22.9,0-1.58-.53-1.58-0.53-2.37a2,2,0,0,1,0-.3c6.45,19.56,22.65,29.52,37.63,29.52,16.06,0,30.54-11.32,30.54-34C481,282.73,475.22,271.14,467.59,271.14Z"/><path class="cls-1" d="M653.16,243.31a44.53,44.53,0,0,0,.69-4.57c0.09-2.3-.39-2.9-1.14-2.93a3.42,3.42,0,0,0-2.07,1.06c-12.24,27.7-50.32,75.64-81.59,74.38-11.35-.46-18.8-10-17.81-34.38,0.79-19.53,3.12-39.58,6.81-62.16,0.24-6-4.5-7.37-9.54-7.86,0,0-1.91-2.67-4.44-2.77-9.59-.39-32.67,51.9-33.94,51.85a1,1,0,0,1-.71-1.18c1-25.56,11.53-104,18.56-152.88a14.57,14.57,0,0,0,.38-3.15c0.21-5.17-12.55-20.93-16.08-21.08-0.25,0-24.06,220-25.57,238.32,1.93,2.38,16.41,13,16.91,13.05,1.26,0.05,1.85-1.94,2-4.81,0,0,.1-8.63.53-19.26,0.59-14.65,4.39-33.48,10.51-47.62,2.53-6.22,15.43-31.59,16.95-31.53,0.75,0,.86,3.77.81,4.92-0.83,8-2.11,20.92-2.65,34.42-1.73,42.79,21.2,63,48.45,64.1,12.62,0.51,25.9-3,38.32-10.25,19.67-11.57,35-34.25,36.42-69.58C655,246.84,653.3,246.2,653.16,243.31Z"/><path class="cls-1" d="M268.57,0L153.35,173.87l-38.27,48L93.37,250.61c1.9-22.69-4.55-41.21-18.41-47-20.7-8.7-50.07,14.2-65.59,51.14S-2,328.65,18.75,337.35c12.11,5.09,27.17-.64,40.7-13.65a70.44,70.44,0,0,0,5.61-5.34c4.29-4.73,23.78-29.43,23.78-29.43l70.7-95.79,13.92-2ZM42.3,322c-9.48,8.58-18.36,11-23.62,5.9S7.7,301.64,33.57,257s40-33.43,40-33.43,5.21,3.06,5.87,12.39C81,257.78,57.43,308.31,42.3,322ZM165,179a3.86,3.86,0,0,1-1.3-5.29l6-9.88a3.85,3.85,0,0,1,6.59,4l-6,9.88A3.86,3.86,0,0,1,165,179Z"/><path class="cls-1" d="M218.43,226.61c-13.18-2.7-27.44,10-35.78,30.05L175.11,199l-14.43,1.66,6.56,74.95s0.25,44.43,19,54.07c9.61,4.94,16.73,4.82,22.45,1.87,12.65-5.63,24.35-23.16,28.92-45.51C243.64,256.6,235,230,218.43,226.61Zm1,58.82c-3.77,22.06-14.44,38.94-23.83,37.7s-13.94-20.14-10.17-42.2,14.44-38.94,23.83-37.7S223.19,263.37,219.42,285.44Z"/><polygon class="cls-1" points="167.72 140.34 148.93 36.77 154.29 159.01 167.72 140.34"/></svg>